<svg width="66" height="66" viewBox="0 0 66 66" fill="none" xmlns="http://www.w3.org/2000/svg">
<g id="7620_1636987363 1" clip-path="url(#clip0_76_170652)">
<g id="Clip path group">
<mask id="mask0_76_170652" style="mask-type:luminance" maskUnits="userSpaceOnUse" x="-4" y="0" width="76" height="76">
<g id="clip-path">
<path id="Vector" d="M33.6713 75.456C54.4697 75.456 71.3302 58.5955 71.3302 37.7971C71.3302 16.9986 54.4697 0.138123 33.6713 0.138123C12.8728 0.138123 -3.98767 16.9986 -3.98767 37.7971C-3.98767 58.5955 12.8728 75.456 33.6713 75.456Z" fill="white"/>
</g>
</mask>
<g mask="url(#mask0_76_170652)">
<g id="Group">
<path id="Vector_2" d="M6.55704 62.3373C6.68537 61.0239 7.04769 59.8086 7.91575 58.782C8.28869 58.3297 8.75132 57.9596 9.27447 57.6951C9.40279 57.7102 9.41789 57.8158 9.44053 57.9064C9.68208 58.782 9.95382 59.6576 10.2633 60.5182C10.286 60.5861 10.3161 60.654 10.2633 60.7295C9.50847 61.3938 9.16124 62.2317 9.22918 63.2431C9.2314 63.3253 9.21047 63.4063 9.16879 63.4771C8.88195 63.9829 8.48943 64.3528 7.88556 64.3452C7.28169 64.3377 6.70801 63.847 6.56459 63.4847C6.48911 63.2733 6.5193 62.4808 6.55704 62.3373Z" fill="#D98182"/>
<path id="Vector_3" d="M10.4673 55.8152C10.1276 55.7925 10.0748 55.7397 10.1125 55.4076C10.143 55.1838 10.2174 54.9684 10.3314 54.7735C10.4145 54.6225 10.3843 54.547 10.2409 54.4791C10.0974 54.4112 10.0597 54.3734 9.96912 54.3206C9.74267 54.1847 9.69738 54.0715 9.77286 53.8224C9.79447 53.7269 9.83559 53.637 9.89364 53.5582C10.2031 53.1883 10.2031 52.7505 10.2484 52.3127C10.4069 50.6521 10.573 48.999 10.7315 47.3459C10.89 45.6928 11.041 44.1982 11.1995 42.6206C11.2448 42.2054 11.2146 41.7827 11.2071 41.3675C11.1995 40.9524 11.2146 40.3938 11.2297 39.9031C11.2384 39.754 11.2283 39.6044 11.1995 39.4578C11.1701 39.2944 11.1995 39.126 11.2825 38.9822C11.4426 38.6744 11.6635 38.4022 11.9317 38.1821C12.1081 38.0202 12.2471 37.8219 12.3393 37.6009C12.6564 36.8989 12.8677 36.1591 13.1545 35.442C13.8792 33.6455 14.7775 31.9396 15.6908 30.2337C16.7702 28.2107 17.8798 26.2104 18.7404 24.0817C19.0122 23.4245 19.2441 22.7515 19.4348 22.0663C19.6764 21.1831 21.6767 19.5527 21.7899 19.4017C21.9031 19.2507 22.1598 19.2356 22.356 19.1752C23.594 18.7752 27.1644 18.1336 27.3078 18.0505C27.4512 18.2015 27.4739 18.4053 27.5418 18.5789C28.4476 20.9265 29.3006 23.2891 30.2894 25.5989C30.38 25.8027 30.4857 26.0065 30.5687 26.2104C30.6517 26.4142 30.6593 26.3915 30.7801 26.2405C31.4443 25.3725 32.1086 24.5044 32.7653 23.6213L33.3993 22.7758C33.6409 22.4663 33.8598 22.4513 34.1542 22.7079C35.3997 23.7873 36.6754 24.8365 37.9359 25.9009C37.9435 25.9112 37.9546 25.9184 37.9671 25.9212C37.9796 25.924 37.9926 25.9221 38.0039 25.916C38.0945 25.7122 38.0643 25.4857 38.0869 25.2668C38.1322 24.6554 38.185 24.044 38.2379 23.4325C38.3134 22.6551 38.3737 21.8776 38.4417 21.1001L38.6002 19.2658C38.6228 19.0243 38.7663 18.0505 38.7663 18.0505C40.1401 18.0732 41.0081 18.3449 42.3819 18.3449C42.7443 18.3449 43.8916 18.5865 44.2539 18.8884C44.9635 19.4621 46.292 20.6396 46.6166 21.47C47.6356 24.0666 52.6553 34.6948 53.3271 36.0157C53.5309 36.4082 54.0971 37.933 54.2254 38.2576C54.3084 38.4614 54.6481 38.5822 54.8896 39.6918C54.9192 39.8108 54.9058 39.9364 54.8519 40.0466C54.8141 40.124 54.797 40.2099 54.8023 40.2959C54.8076 40.3819 54.8351 40.465 54.8821 40.5372C55.0783 40.892 55.1387 41.3071 55.2142 41.6997C55.5086 43.3603 56.0596 45.7154 56.3918 47.3685C56.6333 48.5687 56.8824 49.7689 57.1315 50.9766C57.1315 50.9842 57.1466 50.9993 57.1542 51.0068C57.3882 51.8145 58.4374 55.9284 58.1505 56.419C58.1226 56.4775 58.0769 56.5258 58.02 56.5569C57.9631 56.5881 57.8979 56.6006 57.8335 56.5927C57.7656 56.5776 57.7278 56.6153 57.6901 56.6681C57.4712 56.9776 57.2523 57.2796 57.207 57.6721C57.2054 57.7128 57.1952 57.7527 57.1769 57.7891C57.1587 57.8256 57.1329 57.8577 57.1013 57.8834C56.9156 57.9336 56.7195 57.931 56.5352 57.8759C55.3878 57.589 54.2405 57.3022 53.0705 57.121C52.844 57.0833 52.61 57.0757 52.3911 57.0229C52.1722 57.0833 52.0816 57.0229 52.142 56.8342C52.2045 56.651 52.2248 56.456 52.2013 56.2638C52.1777 56.0717 52.111 55.8873 52.0061 55.7246C51.8606 55.4701 51.7537 55.1953 51.6891 54.9094C51.6438 54.7282 51.6514 54.5848 51.8325 54.4414C52.2552 54.1168 51.6665 51.6711 51.3192 50.954C50.6701 49.6104 48.2169 44.1152 48.1112 43.2395C48.0961 43.1414 47.9602 42.8244 47.9828 42.7564C47.7413 41.6921 47.0242 39.6163 46.7525 39.4653C46.6392 39.3974 45.7334 37.0649 45.1749 35.6458C45.0692 35.6308 45.1296 35.6987 45.1296 35.7364C45.2428 36.6649 45.439 37.5707 45.5825 38.484C45.6768 39.1444 45.7297 39.8099 45.741 40.4768C45.7712 41.7374 46.0505 42.9678 46.3298 44.1982C46.609 45.4286 46.8883 46.6967 46.843 47.9875C46.7978 49.082 46.8279 50.1614 47.0695 51.2333C47.1072 51.4069 47.0091 51.5805 47.0393 51.7541C47.0695 51.9277 46.8355 51.8749 46.7147 51.8975C45.1598 52.1617 43.5972 52.4108 42.0272 52.592C40.6458 52.7581 39.2645 52.8939 37.868 52.8637C37.7551 52.8628 37.6429 52.8807 37.5359 52.9166C37.3547 52.9996 37.166 52.9694 36.9773 52.9543C35.9356 52.8637 34.9015 52.909 33.8598 52.9845L31.3311 53.1808C30.6215 53.2412 29.912 53.2789 29.2024 53.3091C28.8855 53.3306 28.5672 53.3026 28.2589 53.2261C28.0831 53.187 27.9025 53.1743 27.723 53.1883C26.6843 53.26 25.6416 53.2449 24.6055 53.143C24.3262 53.1128 24.0695 53.0147 23.8053 52.9317C23.6535 52.1505 23.5426 51.3618 23.4732 50.569C23.3915 49.731 23.3814 48.8876 23.443 48.0479C23.5109 46.9232 23.3373 45.8135 23.2015 44.7039C23.0958 43.8661 23.1109 43.0282 23.058 42.1903C22.9675 40.6882 23.2166 39.2011 23.3373 37.7141C23.4355 36.4837 23.5562 35.2533 23.6695 34.0229C23.7072 33.5927 23.7299 33.1549 23.7676 32.7246C23.76 32.6718 23.8431 32.5888 23.7148 32.5812C23.0279 33.9928 22.3183 35.3892 21.4653 36.7026C21.2162 37.08 20.952 37.4499 20.5897 37.7368L20.3104 38.0009C20.1821 38.1293 20.0764 38.2576 20.1821 38.4539C20.2214 38.5337 20.2418 38.6215 20.2418 38.7105C20.2418 38.7995 20.2214 38.8873 20.1821 38.9671C19.9858 39.3672 19.7367 39.7144 19.2687 39.8277C19.1253 39.8579 19.1102 39.9333 19.1178 40.0541C19.1521 40.5179 19.2279 40.9777 19.3442 41.4279C19.4197 41.7328 19.4197 42.0515 19.3442 42.3564C19.1782 43.0282 18.9593 43.6924 18.6045 44.2737C18.2497 44.8549 18.0006 45.2701 17.8119 45.8286C17.3364 47.2251 17.0646 48.6668 16.8155 50.1161C16.7853 50.2822 16.7476 50.5766 16.7249 50.7426C16.7043 50.8812 16.6636 51.0159 16.6042 51.1427C16.3022 51.739 16.4532 52.358 16.7325 52.9694C16.8212 53.1416 16.9248 53.3058 17.042 53.4601C17.1175 53.5506 17.1175 53.5959 17.0118 53.6412C16.9061 53.6865 16.6495 53.8224 16.4607 53.8979C16.272 53.9734 16.2947 54.0337 16.3098 54.1772C16.3344 54.3438 16.3968 54.5025 16.4924 54.6412C16.5879 54.7799 16.7139 54.8949 16.8608 54.9773C16.9967 55.0679 17.1476 55.1283 17.1326 55.3245C17.1175 55.5208 16.974 55.6793 16.8004 55.7774C16.7102 55.814 16.6167 55.8418 16.5211 55.8605C16.4859 55.9036 16.4423 55.9392 16.3931 55.9651C16.3438 55.991 16.2898 56.0068 16.2343 56.0114C15.6976 56.1235 15.1519 56.1866 14.6038 56.2001C13.3994 56.2267 12.1949 56.151 11.0033 55.9737C10.8178 55.9475 10.6372 55.8941 10.4673 55.8152Z" fill="#C27DA8"/>
<path id="Vector_4" d="M23.805 52.9318C23.8503 52.8865 23.8881 52.8487 23.956 52.894C24.2127 53.045 24.507 53.0752 24.7939 53.1054C25.6975 53.1871 26.6061 53.1972 27.5113 53.1356C27.9642 53.1054 28.3794 53.2186 28.8172 53.2261C28.892 53.2387 28.9678 53.2438 29.0436 53.2412C29.9343 53.2111 30.8251 53.1658 31.7158 53.0676C32.1989 53.0223 32.6895 53.0223 33.1726 52.9695C34.2663 52.8638 35.365 52.8184 36.4637 52.8336C36.6333 52.8396 36.8023 52.8573 36.9695 52.8865C37.3846 52.9695 37.762 52.7506 38.1696 52.7808C38.5819 52.8134 38.9963 52.8084 39.4076 52.7657C39.8529 52.7204 40.3134 52.7053 40.7663 52.66C41.3702 52.5921 41.974 52.5317 42.5855 52.4487C43.1969 52.3656 43.7328 52.2977 44.3065 52.2071C45.0236 52.1014 45.7331 51.9882 46.4427 51.8674C46.6465 51.8372 46.8428 51.7995 47.039 51.7542C47.2428 52.5694 47.3711 53.3998 47.5221 54.2225C47.8089 55.7775 48.0958 57.3325 48.36 58.8874C48.4732 59.5744 48.6544 60.2537 48.6393 60.9557C48.6393 61.1369 48.6166 61.3256 48.6091 61.5143C48.588 61.8594 48.6529 62.2043 48.7978 62.5182C49.213 63.4769 49.2733 64.4733 49.2205 65.4923C49.1677 66.5113 49.0695 67.3341 49.0997 68.255C49.1224 68.9797 49.3337 69.6741 49.4771 70.3761C49.5779 70.8831 49.626 71.3991 49.6206 71.916C49.613 72.2708 49.7036 72.6255 49.7338 72.9803C49.8244 73.9163 49.7942 74.8523 49.7791 75.7883C49.7489 76.9281 49.6885 78.0679 49.8244 79.2077C49.8999 79.8795 50.0131 80.5513 50.0961 81.2307C50.1791 81.9101 50.2169 82.5743 50.2471 83.2461C50.315 84.7483 50.2395 86.2428 50.2093 87.745C50.1867 88.9225 50.1867 90.0925 50.2244 91.2701C50.2697 92.7043 49.5677 94.0705 50.1339 95.399C50.6094 96.5087 50.8736 96.3048 50.8434 97.5352C50.8359 97.8825 50.9415 98.2146 51.0774 98.5316C51.5756 99.679 51.9002 100.879 52.3153 102.049C52.7316 103.253 53.0844 104.477 53.3721 105.718C53.4325 105.967 53.3042 106.148 53.1759 106.329C53.0853 106.156 52.9645 106.14 52.7758 106.178C51.1151 106.465 49.462 106.797 47.7938 107.016C47.2806 107.076 46.7748 107.159 46.2615 107.182C46.0502 107.197 45.2274 107.899 45.0462 107.975C44.6235 107.967 44.3744 107.794 44.2461 107.348C44.0272 106.608 43.8385 105.484 43.6271 104.752C43.4158 104.019 42.7591 103.393 42.6157 102.713C42.0269 99.9205 41.9891 98.3731 41.3928 95.5878C41.1211 94.3347 40.9626 93.0666 40.8191 91.7909C40.6002 89.8359 41.3551 87.8733 40.8116 85.9711C40.5398 85.0124 40.5549 84.0161 40.5776 83.0197C40.6002 82.1441 40.6531 81.2684 40.6153 80.3928C40.5851 79.721 41.0531 79.0568 40.8418 78.4227C40.3134 76.8677 39.9662 75.2675 39.6038 73.6672C39.3623 72.6255 39.1056 71.5839 38.7811 70.5648C38.7715 70.512 38.7536 70.4611 38.7282 70.4138C38.3659 69.8477 38.4036 69.2212 38.4565 68.5871C38.5048 68.1386 38.4533 67.6849 38.3055 67.2586C38.1395 66.7982 38.0036 66.3302 37.8451 65.8697C37.6865 65.4093 37.5733 65.4017 37.1808 65.4093C36.5618 65.4093 36.1165 65.6961 35.8296 66.2471C35.5428 66.7982 35.4522 67.3115 35.3692 67.8851C35.1427 69.5005 34.9012 71.1158 34.6672 72.7312C34.4332 74.3466 35.3088 76.0223 35.0748 77.6679C34.8408 79.3134 34.6898 80.7476 34.554 82.2875C34.4407 83.5556 34.3803 84.8313 34.3049 86.0994C34.2369 87.2166 34.3803 88.296 34.5842 89.383C34.8106 90.6134 34.8106 91.8588 34.7427 93.1043C34.6898 94.0403 34.6823 94.9763 34.6672 95.9123C34.6445 97.9655 34.6143 98.6373 34.6219 100.69C34.6294 101.491 33.5425 102.298 33.5651 103.098C33.591 103.601 33.5401 104.105 33.4142 104.593C33.2096 105.261 33.1733 105.969 33.3085 106.654C33.4443 107.341 33.2179 107.907 32.765 108.412C32.6065 108.594 32.4631 108.805 32.2291 108.903C31.6252 108.541 30.9534 108.397 30.2891 108.246C29.732 108.131 29.1666 108.06 28.5983 108.035C28.002 107.997 27.3981 107.997 26.8018 107.997C26.6961 107.997 26.5527 107.944 26.5753 108.163C26.5829 108.246 26.4621 108.201 26.4092 108.231L26.1903 108.171C26.0394 108.111 25.9714 108.02 26.0092 107.839C26.2303 106.782 26.3165 105.702 26.2658 104.623C26.2281 103.642 26.0998 102.668 25.9865 101.694C25.9261 101.211 25.8507 100.728 25.8507 100.238C25.8582 99.9205 25.9186 99.6186 26.1073 99.362C26.4696 98.8487 26.5829 98.2674 26.5376 97.656C26.4394 96.4936 26.3262 96.7125 26.213 95.55L25.9186 92.5307C25.8054 91.3456 25.6846 90.1605 25.5714 88.9754C25.4581 87.7903 25.3525 86.6957 25.2468 85.5559C25.1411 84.4161 25.0052 83.0801 24.892 81.8421C24.7788 80.6042 24.6958 79.57 24.6127 78.4378C24.4844 76.747 24.3636 75.0561 24.2655 73.3653C24.19 71.9915 24.0164 70.6177 23.9938 69.2438C23.9787 68.3531 23.571 67.4775 23.7145 66.6095C23.9106 65.4112 23.9334 64.191 23.7824 62.9862C23.639 61.9747 23.639 60.9482 23.5182 59.9367C23.2767 57.959 23.9032 55.9587 23.7824 53.9734C23.7673 53.7092 23.7522 53.4526 23.7145 53.1884C23.6994 53.0752 23.7598 53.0148 23.805 52.9318Z" fill="#C49870"/>
<path id="Vector_5" d="M52.391 57.0231C52.6023 56.9476 52.8212 57.0155 53.0175 57.0457C54.2328 57.242 55.4254 57.5213 56.6181 57.8308C56.7744 57.8785 56.9383 57.8964 57.1012 57.8836C56.9276 57.9214 56.8898 58.0195 56.8898 58.2006C56.8747 59.4612 56.7841 60.7143 56.6634 61.9673C56.5652 62.941 56.0067 63.6204 55.2745 64.1865C54.5423 64.7527 53.727 65.0697 52.8967 65.3943L52.0211 65.7415C51.7645 65.8396 51.6286 65.7415 51.6059 65.4773C51.5986 65.273 51.651 65.071 51.7569 64.8961C51.855 64.73 51.7947 64.6696 51.6361 64.6394L51.5003 64.6092C51.3569 64.5715 51.2285 64.5262 51.1983 64.3526C51.1681 64.179 51.2059 64.0054 51.3569 63.8846C51.453 63.8163 51.5603 63.7652 51.6739 63.7336L52.942 63.2732C53.0779 63.2279 53.1005 63.1901 53.025 63.0543C52.8061 62.6693 52.859 62.4957 53.244 62.2994C53.2884 62.2784 53.3261 62.2453 53.3528 62.2039C53.3794 62.1626 53.394 62.1146 53.3949 62.0654C53.4402 61.5748 53.4025 61.0766 53.4176 60.5859C53.4176 60.4652 53.3421 60.4954 53.2817 60.5331C53.025 60.669 52.9194 60.903 52.8816 61.1747C52.8439 61.4465 52.7986 61.8239 52.7458 62.1485C52.6627 62.6391 52.4136 62.9939 51.9305 63.1675C51.5984 63.2883 51.4097 63.1901 51.3342 62.8505C51.3129 62.7411 51.3028 62.6298 51.304 62.5183C51.2814 61.1974 51.3418 59.8915 51.7267 58.6234C51.8812 58.106 52.1128 57.6149 52.4136 57.1665C52.4438 57.1212 52.557 57.0382 52.391 57.0231Z" fill="#522D24"/>
<path id="Vector_6" d="M17.1477 58.9932C17.8044 59.6046 18.129 60.3594 18.1742 61.2577C18.2573 62.7825 18.3026 64.3148 18.3328 65.8396C18.363 67.7518 18.3906 69.6565 18.4158 71.5537C18.4384 73.003 18.4535 74.4447 18.4611 75.894C18.4862 77.9623 18.5013 80.0331 18.5064 82.1064C18.5215 84.386 18.529 86.6656 18.5441 88.9452C18.5819 93.4592 18.5819 97.9731 18.5819 102.487C18.5819 105.597 18.5844 108.702 18.5894 111.802C18.5064 111.892 18.4007 111.885 18.295 111.885H16.0833C15.9777 111.885 15.872 111.892 15.789 111.809C15.789 111.47 15.7965 111.13 15.7965 110.79C15.8066 105.124 15.8116 99.4526 15.8116 93.7762C15.8116 90.6562 15.8015 87.5362 15.7814 84.4162C15.7739 82.6272 15.7512 80.8307 15.7361 79.0417C15.721 77.5773 15.7059 76.1205 15.6757 74.6561C15.6455 73.1917 15.6304 71.5386 15.5851 69.9761C15.5399 68.0361 15.487 66.0962 15.3738 64.1638C15.3587 63.809 15.321 63.4618 15.2908 63.107C15.2606 63.0089 15.3436 62.9561 15.3889 62.8957C15.7902 62.4314 16.1585 61.9396 16.491 61.4237C16.7608 61.0084 16.917 60.5295 16.9439 60.0348C16.9665 59.7707 17.0269 59.5065 17.0495 59.2347C17.0468 59.1897 17.0542 59.1446 17.0712 59.1028C17.0882 59.061 17.1143 59.0235 17.1477 58.9932Z" fill="#D98182"/>
<path id="Vector_7" d="M17.1477 58.9932C17.0797 59.4989 17.0344 60.0122 16.9514 60.518C16.8684 61.0237 16.6117 61.3709 16.3475 61.7559C16.0211 62.2259 15.6683 62.677 15.2908 63.1071C15.2153 63.1901 14.8529 63.1297 14.7699 63.0995C14.4302 62.9485 14.317 62.6013 14.3849 62.2163C14.4227 61.9823 14.2264 61.9144 14.0528 61.854C13.615 61.7031 13.147 61.6653 12.6866 61.6276C12.2355 61.5772 11.7816 61.557 11.3278 61.5672C11.1769 61.5747 10.656 61.5219 10.5881 61.386C10.5202 61.2502 10.2333 60.9482 10.1201 60.7293C9.95404 60.3594 9.91629 60.1405 9.79552 59.7933C9.60681 59.2121 9.54642 59.0007 9.38036 58.4044C9.35771 58.3214 9.33507 58.0421 9.27468 57.6949C9.21429 57.3476 9.68984 57.0155 9.82571 56.8494C10.1352 56.4796 10.1729 56.3814 10.4824 56.004C10.5428 55.9361 10.6258 55.8681 10.4673 55.8153C11.0938 55.9285 11.7128 56.0191 12.3469 56.072C12.9809 56.1248 13.5244 56.1248 14.1132 56.1323C14.8199 56.1452 15.526 56.0819 16.2192 55.9436L16.5211 55.8606C16.6297 56.1392 16.8001 56.3895 17.0193 56.5928C17.3741 56.94 17.3968 57.325 17.3062 57.7703C17.2156 58.2157 17.2005 58.5856 17.1477 58.9932Z" fill="#522D24"/>
<path id="Vector_8" d="M23.7146 32.5814C23.7071 32.5362 23.7297 32.4984 23.8052 32.4531C23.7977 32.5588 23.8279 32.6418 23.7675 32.7249C23.7448 32.6796 23.775 32.6116 23.7146 32.5814Z" fill="#B6B7B6"/>
<path id="Vector_9" d="M28.9756 17.4997C28.6564 17.2887 28.3819 17.0168 28.168 16.6995L28.9756 16.6392V17.4997Z" fill="#686A66"/>
<path id="Vector_10" d="M43.5369 55.2267C43.3859 55.2493 43.3406 55.1889 43.3331 55.0304C43.318 54.4341 43.2802 53.8378 43.25 53.2414C43.2349 53.0829 43.2802 53.0376 43.4463 53.0074C44.3295 52.8791 45.2126 52.7432 46.0958 52.63C46.2317 52.6149 46.2467 52.698 46.2618 52.7885C46.3902 53.5056 46.5109 54.2227 46.6468 54.9323C46.6695 55.0757 46.6242 55.0908 46.5109 55.0908H45.9524C45.1857 55.0919 44.4197 55.1348 43.6576 55.2191L43.5369 55.2267Z" fill="#9A5542"/>
<path id="Vector_11" d="M24.5678 55.0152V54.0339C24.5678 53.9056 24.598 53.8678 24.7414 53.8905C25.3707 53.9986 26.0059 54.0691 26.6436 54.1018C27.0135 54.1245 27.3758 54.1622 27.7381 54.1924C27.8967 54.1999 27.8589 54.3207 27.8514 54.4113C27.8287 54.683 27.791 54.9548 27.7608 55.2265C27.7306 55.4983 27.6702 55.8908 27.6325 56.2229C27.6174 56.3437 27.5645 56.4041 27.4513 56.3965C26.553 56.2984 25.6548 56.4041 24.7641 56.3135C24.6433 56.2984 24.6282 56.2456 24.6056 56.1474C24.5376 55.7474 24.5829 55.3549 24.5678 55.0152Z" fill="#9A5542"/>
<path id="Vector_12" d="M30.8628 56.3965C30.2514 56.3814 29.6022 56.4418 28.9606 56.4796C28.704 56.5022 28.6813 56.4494 28.7191 56.2003C28.8096 55.6191 28.8927 55.0378 28.9757 54.4566C28.9984 54.3207 29.0059 54.2453 29.2097 54.2604C29.6419 54.2955 30.0763 54.293 30.508 54.2528C30.9968 54.1999 31.4884 54.1772 31.98 54.1849C32.1234 54.1924 32.1385 54.2679 32.1234 54.3736C32.0555 55.0001 31.9724 55.6191 31.9045 56.238C31.8894 56.3663 31.8215 56.3965 31.7082 56.3965H30.8628Z" fill="#9A5542"/>
<path id="Vector_13" d="M42.3519 53.8981C42.3519 54.3661 42.2764 54.8341 42.3066 55.3097C42.3142 55.438 42.2538 55.4908 42.1179 55.4984C41.2951 55.5437 40.4799 55.6267 39.6571 55.6343C39.2872 55.6343 39.2721 55.6494 39.2872 55.2719C39.325 54.6983 39.3854 54.1246 39.4156 53.5584C39.4231 53.3924 39.4986 53.3848 39.6269 53.3773C39.7552 53.3697 40.0647 53.3999 40.2912 53.3924C40.9026 53.3773 41.514 53.3093 42.1254 53.2867C42.2991 53.2792 42.367 53.332 42.3519 53.5132C42.3443 53.6414 42.3443 53.7699 42.3519 53.8981Z" fill="#9A5542"/>
<path id="Vector_14" d="M28.168 16.639L27.2698 17.9298L30.6062 26.618L33.701 22.5419L38.0942 26.2029L38.8264 17.9449L36.9166 16.5258L28.168 16.639Z" fill="#E3C2D7"/>
<path id="Vector_15" d="M38.298 11.3174L37.6187 8.63771L37.0752 5.39945L36.6676 4.25964L35.6032 3.08964L34.8937 2.62919L33.8218 2.23667C33.8218 2.23667 33.2708 2.1008 32.0178 2.04041C31.4063 2.01022 27.768 3.08964 26.9603 4.27474C26.598 4.81068 26.3112 5.21074 25.7601 6.5619L27.2396 6.62229L29.6174 7.61868L28.6889 10.4493L29.4588 12.4798L28.5983 12.4421L28.1001 10.872L26.8018 9.92849L26.2961 9.90584L25.8734 10.3512L25.813 11.6722C25.813 11.6722 26.9603 13.8612 27.6548 14.2386C27.8133 14.3141 28.3492 14.2688 28.3492 14.2688L28.8172 16.2616L28.787 17.8317L33.6709 22.4437L37.4526 17.0693L37.3922 15.8691L37.6564 15.2501L38.298 11.3174Z" fill="#522D24"/>
<path id="Vector_16" d="M26.2965 9.90598L26.8022 9.92862L28.1005 10.8722L28.5987 12.4422L29.4593 12.48L28.6893 10.4495L29.6857 7.39991L28.8554 6.43371L26.9909 6.10913L25.7605 6.56203L25.6851 6.7432L26.2965 9.90598Z" fill="#B5B4C1"/>
</g>
</g>
</g>
</g>
<defs>
<clipPath id="clip0_76_170652">
<rect width="65.4002" height="65.4002" fill="white" transform="translate(0.0369873 0.138062)"/>
</clipPath>
</defs>
</svg>
